<svg width="9" height="12" viewBox="0 0 9 12" fill="none" xmlns="http://www.w3.org/2000/svg">
<path d="M8.7408 6.49405C8.82074 6.439 8.8861 6.36534 8.93125 6.27942C8.97641 6.1935 9 6.09788 9 6.00081C9 5.90374 8.97641 5.80813 8.93125 5.72221C8.8861 5.63628 8.82074 5.56262 8.7408 5.50757L0.941335 0.107151C0.851375 0.0446415 0.746007 0.00798413 0.636679 0.0011625C0.527351 -0.00565913 0.418245 0.0176143 0.321214 0.0684566C0.224183 0.119299 0.142939 0.195764 0.0863085 0.289544C0.0296783 0.383325 -0.000172298 0.490833 2.45448e-07 0.60039L7.17568e-07 11.4012C0.000452137 11.5105 0.0306866 11.6177 0.0874525 11.7111C0.144218 11.8045 0.225368 11.8806 0.322174 11.9313C0.418981 11.9821 0.527781 12.0054 0.636876 11.9989C0.74597 11.9924 0.85123 11.9563 0.941336 11.8945L8.7408 6.49405Z" fill="#DB2727"/>
</svg>
