<svg width="77" height="58" viewBox="0 0 77 58" fill="none" xmlns="http://www.w3.org/2000/svg">
<path d="M24.1668 45.9167C23.6021 45.9178 23.0549 45.7211 22.6201 45.3608C22.3754 45.158 22.1731 44.9088 22.0248 44.6276C21.8766 44.3464 21.7852 44.0388 21.7561 43.7223C21.7269 43.4057 21.7604 43.0866 21.8548 42.783C21.9491 42.4795 22.1024 42.1975 22.3059 41.9533L33.1326 29L22.6926 16.0225C22.4919 15.7753 22.342 15.4909 22.2515 15.1855C22.161 14.8802 22.1318 14.56 22.1655 14.2434C22.1992 13.9267 22.2951 13.6199 22.4478 13.3404C22.6005 13.061 22.8068 12.8144 23.0551 12.615C23.3051 12.395 23.598 12.229 23.9152 12.1276C24.2324 12.0261 24.5672 11.9913 24.8985 12.0253C25.2298 12.0594 25.5505 12.1615 25.8404 12.3254C26.1304 12.4892 26.3834 12.7112 26.5834 12.9775L38.2559 27.4775C38.6114 27.9099 38.8057 28.4523 38.8057 29.0121C38.8057 29.5718 38.6114 30.1142 38.2559 30.5467L26.1726 45.0467C25.9302 45.3391 25.6222 45.5703 25.2737 45.7215C24.9252 45.8726 24.546 45.9395 24.1668 45.9167Z" fill="#0B682F"/>
<path d="M43.75 45.9167C43.1951 45.9178 42.6573 45.7211 42.23 45.3608C41.9895 45.158 41.7907 44.9088 41.645 44.6276C41.4993 44.3464 41.4096 44.0388 41.3809 43.7223C41.3522 43.4057 41.3852 43.0866 41.4779 42.783C41.5706 42.4795 41.7213 42.1975 41.9213 41.9533L52.5613 29L42.3013 16.0225C42.104 15.7753 41.9567 15.4909 41.8678 15.1855C41.7789 14.8802 41.7501 14.56 41.7833 14.2434C41.8164 13.9267 41.9106 13.6199 42.0607 13.3404C42.2107 13.061 42.4136 12.8144 42.6575 12.615C42.9033 12.395 43.191 12.229 43.5028 12.1276C43.8145 12.0261 44.1435 11.9913 44.4691 12.0253C44.7947 12.0594 45.1099 12.1615 45.3948 12.3254C45.6798 12.4892 45.9284 12.7112 46.125 12.9775L57.5963 27.4775C57.9456 27.9099 58.1366 28.4523 58.1366 29.0121C58.1366 29.5718 57.9456 30.1142 57.5963 30.5467L45.7213 45.0467C45.483 45.3391 45.1804 45.5703 44.8379 45.7215C44.4954 45.8726 44.1227 45.9395 43.75 45.9167Z" fill="#0B682F"/>
</svg>
